<mxfile host="app.diagrams.net" agent="Mozilla/5.0 (Macintosh; Intel Mac OS X 10.15; rv:130.0) Gecko/20100101 Firefox/130.0" version="24.7.10">
  <diagram name="Seite-1" id="CLlsIAbSmQ4yP-gwFRfa">
    <mxGraphModel dx="545" dy="337" grid="1" gridSize="10" guides="1" tooltips="1" connect="1" arrows="1" fold="1" page="1" pageScale="1" pageWidth="827" pageHeight="1169" math="0" shadow="0">
      <root>
        <mxCell id="0" />
        <mxCell id="1" parent="0" />
        <mxCell id="EUN8NSCSes64wndPY3yv-2" value="NetSweep" style="rounded=0;whiteSpace=wrap;html=1;" vertex="1" parent="1">
          <mxGeometry x="280" y="430" width="220" height="60" as="geometry" />
        </mxCell>
        <mxCell id="EUN8NSCSes64wndPY3yv-3" value="Netzwerkscanner" style="rounded=0;whiteSpace=wrap;html=1;" vertex="1" parent="1">
          <mxGeometry x="280" y="490" width="110" height="60" as="geometry" />
        </mxCell>
        <mxCell id="EUN8NSCSes64wndPY3yv-4" value="Datenbank" style="rounded=0;whiteSpace=wrap;html=1;" vertex="1" parent="1">
          <mxGeometry x="390" y="490" width="110" height="60" as="geometry" />
        </mxCell>
        <mxCell id="EUN8NSCSes64wndPY3yv-5" value="ClientHandler" style="rounded=0;whiteSpace=wrap;html=1;" vertex="1" parent="1">
          <mxGeometry x="500" y="430" width="220" height="120" as="geometry" />
        </mxCell>
        <mxCell id="EUN8NSCSes64wndPY3yv-6" value="Server" style="rounded=0;whiteSpace=wrap;html=1;" vertex="1" parent="1">
          <mxGeometry x="280" y="370" width="440" height="60" as="geometry" />
        </mxCell>
      </root>
    </mxGraphModel>
  </diagram>
</mxfile>
